<svg width="32" height="32" viewBox="0 0 32 32" fill="none" xmlns="http://www.w3.org/2000/svg">
  <path d="M16 2C8.268 2 2 8.268 2 16c0 2.85.846 5.505 2.297 7.719L2 30l6.281-2.297C10.495 29.154 13.15 30 16 30c7.732 0 14-6.268 14-14S23.732 2 16 2z" fill="#00a884"/>
  <path d="M24.5 15.5c0 4.694-3.806 8.5-8.5 8.5-1.48 0-2.873-.379-4.086-1.045L8 24.5l1.545-3.914C8.879 19.373 8.5 17.98 8.5 16.5c0-4.694 3.806-8.5 8.5-8.5s8.5 3.806 8.5 8.5z" fill="white"/>
  <path d="M20.5 18.5c-.25-.125-1.5-.75-1.75-.875-.25-.125-.375-.125-.5.125s-.625.875-.75 1c-.125.25-.25.25-.5.125-1.5-.75-2.5-1.375-3.5-3-.25-.375 0-.375.25-.75.125-.25.125-.375.25-.625.125-.25.125-.375 0-.5-.125-.25-.5-1.25-.75-1.75-.25-.5-.5-.375-.75-.375h-.5c-.25 0-.625.125-.875.375-.25.25-1 1-1 2.5s1 2.875 1.125 3.125c.125.25 2 3.125 4.875 4.375 2.875 1.25 2.875.875 3.375.875.5 0 1.5-.625 1.75-1.25.25-.625.25-1.125.125-1.25-.125-.125-.375-.25-.625-.375z" fill="#00a884"/>
</svg>
